<svg xmlns="http://www.w3.org/2000/svg" viewBox="0 0 400 120" width="400" height="120">
  <defs>
    <style>
      .cls-1 { fill: #00205b; } /* Azul Marino */
      .cls-2 { fill: #cfff04; } /* Verde Tenis */
      .cls-3 { fill: none; stroke: #00205b; stroke-miterlimit: 10; stroke-width: 2px; }
      .cls-text { font-family: 'Helvetica Neue', Arial, sans-serif; font-weight: bold; }
    </style>
  </defs>
  
  <g transform="translate(20, 10)">
    <path class="cls-3" d="M40,5 C20,5 5,20 5,45 C5,65 15,80 30,85 L30,100 L50,100 L50,85 C65,80 75,65 75,45 C75,20 60,5 40,5 Z"/>
    <line class="cls-3" x1="25" y1="20" x2="25" y2="80"/>
    <line class="cls-3" x1="40" y1="15" x2="40" y2="83"/>
    <line class="cls-3" x1="55" y1="20" x2="55" y2="80"/>
    <line class="cls-3" x1="15" y1="35" x2="65" y2="35"/>
    <line class="cls-3" x1="10" y1="50" x2="70" y2="50"/>
    <line class="cls-3" x1="15" y1="65" x2="65" y2="65"/>
    
    <circle class="cls-2" cx="50" cy="35" r="12"/>
    <path class="cls-3" d="M42,35 a12,12 0 0,1 16,0" stroke-width="1.5"/>
    <path class="cls-3" d="M42,35 a12,12 0 0,0 16,0" stroke-width="1.5"/>
  </g>

  <text x="110" y="60" class="cls-1 cls-text" font-size="38">PRO TENNIS</text>
  <text x="110" y="95" class="cls-1 cls-text" font-size="28" letter-spacing="2">TOOL</text>
</svg>